<svg width="100%" viewBox="0 0 90 23" fill="none" xmlns="http://www.w3.org/2000/svg">
<path d="M13.67 10.69C15.21 11.09 16.4 11.75 17.24 12.67C18.08 13.57 18.5 14.7 18.5 16.06C18.5 17.98 17.8 19.45 16.4 20.47C15 21.49 12.89 22 10.07 22H1.16C0.86 22 0.71 21.86 0.71 21.58C0.71 21.34 0.85 21.16 1.13 21.04L2.48 20.35V2.14L1.13 1.48C0.85 1.36 0.71 1.18 0.71 0.939999C0.71 0.659999 0.86 0.519999 1.16 0.519999H9.08C14.4 0.519999 17.06 2.39 17.06 6.13C17.06 7.11 16.76 7.99 16.16 8.77C15.56 9.55 14.73 10.19 13.67 10.69ZM8.66 2.08H7.22V10.15H8.48C9.74 10.15 10.72 9.78 11.42 9.04C12.14 8.28 12.5 7.31 12.5 6.13C12.5 4.79 12.21 3.78 11.63 3.1C11.05 2.42 10.06 2.08 8.66 2.08ZM9.65 20.41C11.15 20.41 12.21 20.05 12.83 19.33C13.45 18.59 13.76 17.5 13.76 16.06C13.76 14.78 13.38 13.74 12.62 12.94C11.86 12.14 10.8 11.74 9.44 11.74H7.22V20.41H9.65ZM32.7078 14.74H25.2078C25.2678 16.4 25.6978 17.71 26.4978 18.67C27.3178 19.63 28.2778 20.11 29.3778 20.11C30.8778 20.11 32.1878 19.62 33.3078 18.64C33.4878 18.48 33.6678 18.45 33.8478 18.55C34.0278 18.65 34.0678 18.87 33.9678 19.21C33.6878 20.09 33.0178 20.86 31.9578 21.52C30.8978 22.16 29.5878 22.48 28.0278 22.48C26.1278 22.48 24.4378 21.79 22.9578 20.41C21.4978 19.03 20.7678 17.24 20.7678 15.04C20.7678 12.66 21.4778 10.73 22.8978 9.25C24.3178 7.75 26.0878 7 28.2078 7C30.0878 7 31.6078 7.61 32.7678 8.83C33.9278 10.03 34.5078 11.58 34.5078 13.48C34.5078 14 34.3978 14.34 34.1778 14.5C33.9578 14.66 33.4678 14.74 32.7078 14.74ZM25.2378 13.15H30.3978C30.3978 11.73 30.1578 10.59 29.6778 9.73C29.1978 8.85 28.5478 8.41 27.7278 8.41C26.2078 8.41 25.3778 9.99 25.2378 13.15ZM46.8418 19.45C47.0218 19.61 47.0018 19.87 46.7818 20.23C46.3618 20.85 45.6718 21.38 44.7118 21.82C43.7518 22.26 42.7618 22.48 41.7418 22.48C40.5618 22.48 39.7118 22.22 39.1918 21.7C38.6918 21.16 38.4418 20.36 38.4418 19.3V9.04H36.3718V7.45H38.4418V4.54L42.1018 2.83C42.2818 2.73 42.4518 2.72 42.6118 2.8C42.7718 2.88 42.8518 3.04 42.8518 3.28V7.45H46.6318V9.04H42.8518V18.67C42.8518 19.63 43.1618 20.11 43.7818 20.11C44.5418 20.11 45.3618 19.9 46.2418 19.48C46.5218 19.34 46.7218 19.33 46.8418 19.45ZM58.8535 19.45C59.0335 19.61 59.0135 19.87 58.7935 20.23C58.3735 20.85 57.6835 21.38 56.7235 21.82C55.7635 22.26 54.7735 22.48 53.7535 22.48C52.5735 22.48 51.7235 22.22 51.2035 21.7C50.7035 21.16 50.4535 20.36 50.4535 19.3V9.04H48.3835V7.45H50.4535V4.54L54.1135 2.83C54.2935 2.73 54.4635 2.72 54.6235 2.8C54.7835 2.88 54.8635 3.04 54.8635 3.28V7.45H58.6435V9.04H54.8635V18.67C54.8635 19.63 55.1735 20.11 55.7935 20.11C56.5535 20.11 57.3735 19.9 58.2535 19.48C58.5335 19.34 58.7335 19.33 58.8535 19.45ZM72.8152 14.74H65.3152C65.3752 16.4 65.8052 17.71 66.6052 18.67C67.4252 19.63 68.3852 20.11 69.4852 20.11C70.9852 20.11 72.2952 19.62 73.4152 18.64C73.5952 18.48 73.7752 18.45 73.9552 18.55C74.1352 18.65 74.1752 18.87 74.0752 19.21C73.7952 20.09 73.1252 20.86 72.0652 21.52C71.0052 22.16 69.6952 22.48 68.1352 22.48C66.2352 22.48 64.5452 21.79 63.0652 20.41C61.6052 19.03 60.8752 17.24 60.8752 15.04C60.8752 12.66 61.5852 10.73 63.0052 9.25C64.4252 7.75 66.1952 7 68.3152 7C70.1952 7 71.7152 7.61 72.8752 8.83C74.0352 10.03 74.6152 11.58 74.6152 13.48C74.6152 14 74.5052 14.34 74.2852 14.5C74.0652 14.66 73.5752 14.74 72.8152 14.74ZM65.3452 13.15H70.5052C70.5052 11.73 70.2652 10.59 69.7852 9.73C69.3052 8.85 68.6552 8.41 67.8352 8.41C66.3152 8.41 65.4852 9.99 65.3452 13.15ZM87.0692 7C87.9092 7 88.5792 7.23 89.0792 7.69C89.5792 8.15 89.8292 8.73 89.8292 9.43C89.8292 10.07 89.5992 10.62 89.1392 11.08C88.6992 11.52 88.1692 11.74 87.5492 11.74C86.8292 11.74 86.2092 11.43 85.6892 10.81C85.4692 10.53 85.1792 10.39 84.8192 10.39C84.4592 10.37 84.1392 10.47 83.8592 10.69C83.0592 11.27 82.6592 12.14 82.6592 13.3V20.44L83.8292 21.04C84.1092 21.16 84.2492 21.34 84.2492 21.58C84.2492 21.86 84.0992 22 83.7992 22H77.0792C76.7792 22 76.6292 21.86 76.6292 21.58C76.6292 21.34 76.7692 21.16 77.0492 21.04L78.2192 20.44V9.37H77.1692C76.8092 9.37 76.6292 9.22 76.6292 8.92C76.6292 8.64 76.7892 8.46 77.1092 8.38L81.9392 7.03C82.1392 6.97 82.3092 6.98 82.4492 7.06C82.5892 7.14 82.6592 7.29 82.6592 7.51V10.21C83.1792 9.25 83.8392 8.48 84.6392 7.9C85.4592 7.3 86.2692 7 87.0692 7Z" fill="#63605B"/>
</svg>
